<mxfile host="app.diagrams.net" modified="2023-02-22T13:38:54.309Z" agent="5.0 (Macintosh; Intel Mac OS X 10_15_7) AppleWebKit/537.36 (KHTML, like Gecko) Chrome/110.0.0.0 Safari/537.36" etag="v1dVJVOeUnVu4UmHT-lF" version="20.8.22" type="github">
  <diagram name="Page-1" id="h41aCG0k0EVXycGhU8FJ">
    <mxGraphModel dx="1060" dy="720" grid="1" gridSize="10" guides="1" tooltips="1" connect="1" arrows="1" fold="1" page="1" pageScale="1" pageWidth="850" pageHeight="1100" math="0" shadow="0">
      <root>
        <mxCell id="0" />
        <mxCell id="1" parent="0" />
        <mxCell id="q7GUhxgeZ2_ehwe_gyCN-16" style="edgeStyle=orthogonalEdgeStyle;rounded=0;orthogonalLoop=1;jettySize=auto;html=1;fontColor=#FFFFFF;" parent="1" source="q7GUhxgeZ2_ehwe_gyCN-17" target="q7GUhxgeZ2_ehwe_gyCN-18" edge="1">
          <mxGeometry relative="1" as="geometry" />
        </mxCell>
        <mxCell id="q7GUhxgeZ2_ehwe_gyCN-17" value="Client dapat mengakses fitur yang&lt;br&gt;memerlukan sign in" style="rounded=1;whiteSpace=wrap;html=1;fontSize=12;glass=0;strokeWidth=1;shadow=0;" parent="1" vertex="1">
          <mxGeometry x="60" y="530" width="200" height="70" as="geometry" />
        </mxCell>
        <mxCell id="q7GUhxgeZ2_ehwe_gyCN-18" value="End" style="ellipse;whiteSpace=wrap;html=1;aspect=fixed;fillColor=#f8cecc;strokeColor=#b85450;fontStyle=1;strokeWidth=2;" parent="1" vertex="1">
          <mxGeometry x="125" y="640" width="70" height="70" as="geometry" />
        </mxCell>
        <mxCell id="q7GUhxgeZ2_ehwe_gyCN-19" style="edgeStyle=orthogonalEdgeStyle;rounded=0;orthogonalLoop=1;jettySize=auto;html=1;entryX=0.5;entryY=0;entryDx=0;entryDy=0;fontColor=#FFFFFF;" parent="1" source="q7GUhxgeZ2_ehwe_gyCN-20" target="q7GUhxgeZ2_ehwe_gyCN-25" edge="1">
          <mxGeometry relative="1" as="geometry" />
        </mxCell>
        <mxCell id="q7GUhxgeZ2_ehwe_gyCN-20" value="Start" style="ellipse;whiteSpace=wrap;html=1;aspect=fixed;fillColor=#d5e8d4;strokeColor=#82b366;fontStyle=1;strokeWidth=2;" parent="1" vertex="1">
          <mxGeometry x="125" y="50" width="70" height="70" as="geometry" />
        </mxCell>
        <mxCell id="q7GUhxgeZ2_ehwe_gyCN-21" style="edgeStyle=orthogonalEdgeStyle;rounded=0;orthogonalLoop=1;jettySize=auto;html=1;entryX=0;entryY=0.5;entryDx=0;entryDy=0;fontColor=#FFFFFF;" parent="1" source="q7GUhxgeZ2_ehwe_gyCN-23" target="q7GUhxgeZ2_ehwe_gyCN-27" edge="1">
          <mxGeometry relative="1" as="geometry" />
        </mxCell>
        <mxCell id="q7GUhxgeZ2_ehwe_gyCN-22" style="edgeStyle=orthogonalEdgeStyle;rounded=0;orthogonalLoop=1;jettySize=auto;html=1;fontColor=#FFFFFF;" parent="1" source="q7GUhxgeZ2_ehwe_gyCN-23" target="q7GUhxgeZ2_ehwe_gyCN-17" edge="1">
          <mxGeometry relative="1" as="geometry" />
        </mxCell>
        <mxCell id="q7GUhxgeZ2_ehwe_gyCN-23" value="Client sudah &lt;br&gt;sign in?" style="rhombus;whiteSpace=wrap;html=1;strokeWidth=1;fillColor=#dae8fc;strokeColor=#6c8ebf;" parent="1" vertex="1">
          <mxGeometry x="90" y="360" width="140" height="130" as="geometry" />
        </mxCell>
        <mxCell id="q7GUhxgeZ2_ehwe_gyCN-33" value="" style="edgeStyle=orthogonalEdgeStyle;rounded=0;orthogonalLoop=1;jettySize=auto;html=1;" parent="1" source="q7GUhxgeZ2_ehwe_gyCN-25" target="q7GUhxgeZ2_ehwe_gyCN-30" edge="1">
          <mxGeometry relative="1" as="geometry" />
        </mxCell>
        <mxCell id="q7GUhxgeZ2_ehwe_gyCN-25" value="Client berinteraksi dengan tampilan antarmuka landing page aplikasi" style="rounded=1;whiteSpace=wrap;html=1;fontSize=12;glass=0;strokeWidth=1;shadow=0;" parent="1" vertex="1">
          <mxGeometry x="60" y="160" width="200" height="70" as="geometry" />
        </mxCell>
        <mxCell id="ILQu-95JdKByVOcAGMpb-1" style="edgeStyle=orthogonalEdgeStyle;rounded=0;orthogonalLoop=1;jettySize=auto;html=1;" edge="1" parent="1" source="q7GUhxgeZ2_ehwe_gyCN-27" target="q7GUhxgeZ2_ehwe_gyCN-45">
          <mxGeometry relative="1" as="geometry" />
        </mxCell>
        <mxCell id="q7GUhxgeZ2_ehwe_gyCN-27" value="sign in with &lt;br&gt;google/apple" style="shape=parallelogram;perimeter=parallelogramPerimeter;whiteSpace=wrap;html=1;fixedSize=1;strokeWidth=1;fillColor=#fff2cc;strokeColor=#d6b656;" parent="1" vertex="1">
          <mxGeometry x="360" y="395" width="150" height="60" as="geometry" />
        </mxCell>
        <mxCell id="q7GUhxgeZ2_ehwe_gyCN-28" value="&lt;font color=&quot;#000000&quot;&gt;Ya&lt;/font&gt;" style="text;html=1;strokeColor=none;fillColor=none;align=center;verticalAlign=middle;whiteSpace=wrap;rounded=0;fontColor=#FFFFFF;" parent="1" vertex="1">
          <mxGeometry x="175" y="490" width="20" height="20" as="geometry" />
        </mxCell>
        <mxCell id="q7GUhxgeZ2_ehwe_gyCN-29" value="&lt;font color=&quot;#000000&quot;&gt;Tidak&lt;/font&gt;" style="text;html=1;strokeColor=none;fillColor=none;align=center;verticalAlign=middle;whiteSpace=wrap;rounded=0;fontColor=#FFFFFF;" parent="1" vertex="1">
          <mxGeometry x="240" y="400" width="20" height="20" as="geometry" />
        </mxCell>
        <mxCell id="q7GUhxgeZ2_ehwe_gyCN-34" value="" style="edgeStyle=orthogonalEdgeStyle;rounded=0;orthogonalLoop=1;jettySize=auto;html=1;" parent="1" source="q7GUhxgeZ2_ehwe_gyCN-30" target="q7GUhxgeZ2_ehwe_gyCN-23" edge="1">
          <mxGeometry relative="1" as="geometry" />
        </mxCell>
        <mxCell id="q7GUhxgeZ2_ehwe_gyCN-30" value="Client berinteraksi dengan fitur &lt;br&gt;yang&amp;nbsp;memerlukan sign in" style="rounded=1;whiteSpace=wrap;html=1;fontSize=12;glass=0;strokeWidth=1;shadow=0;" parent="1" vertex="1">
          <mxGeometry x="60" y="260" width="200" height="70" as="geometry" />
        </mxCell>
        <mxCell id="q7GUhxgeZ2_ehwe_gyCN-43" style="edgeStyle=orthogonalEdgeStyle;rounded=0;orthogonalLoop=1;jettySize=auto;html=1;entryX=1;entryY=0.5;entryDx=0;entryDy=0;" parent="1" source="q7GUhxgeZ2_ehwe_gyCN-40" target="q7GUhxgeZ2_ehwe_gyCN-17" edge="1">
          <mxGeometry relative="1" as="geometry" />
        </mxCell>
        <mxCell id="q7GUhxgeZ2_ehwe_gyCN-40" value="Aplikasi menyimpan state user&lt;br&gt;yang telah sign in" style="rounded=1;whiteSpace=wrap;html=1;fontSize=12;glass=0;strokeWidth=1;shadow=0;" parent="1" vertex="1">
          <mxGeometry x="310" y="530" width="200" height="70" as="geometry" />
        </mxCell>
        <mxCell id="q7GUhxgeZ2_ehwe_gyCN-46" value="" style="edgeStyle=orthogonalEdgeStyle;rounded=0;orthogonalLoop=1;jettySize=auto;html=1;" parent="1" source="q7GUhxgeZ2_ehwe_gyCN-45" target="q7GUhxgeZ2_ehwe_gyCN-40" edge="1">
          <mxGeometry relative="1" as="geometry" />
        </mxCell>
        <mxCell id="q7GUhxgeZ2_ehwe_gyCN-45" value="Greet signed in&lt;br&gt;user" style="shape=parallelogram;perimeter=parallelogramPerimeter;whiteSpace=wrap;html=1;fixedSize=1;strokeWidth=1;fillColor=#fff2cc;strokeColor=#d6b656;" parent="1" vertex="1">
          <mxGeometry x="550" y="535" width="150" height="60" as="geometry" />
        </mxCell>
        <mxCell id="cm2ir6BTmzazHJX4uE8R-4" value="" style="edgeStyle=orthogonalEdgeStyle;rounded=0;orthogonalLoop=1;jettySize=auto;html=1;" parent="1" target="q7GUhxgeZ2_ehwe_gyCN-45" edge="1">
          <mxGeometry relative="1" as="geometry">
            <mxPoint x="625" y="470" as="sourcePoint" />
          </mxGeometry>
        </mxCell>
      </root>
    </mxGraphModel>
  </diagram>
</mxfile>
